Coordinates
version=1
nRows=32
nColumns=12
inDegrees=yes

Units are S.I. units (second, meters, Newtons, ...)
Angles are in degrees

endheader
time	SC_y	SC_z	SC_x	AC_y	AC_z	AC_x	GH_y	GH_z	GH_yy	EL_x	PS_y
       0.0               -51.9           21.7          37.79          46.51          3.807         0.8532         -152.7         -4.225          66.61          100.7          53.59
   0.01499               -51.9          21.69          37.79          46.51          3.805         0.8521         -152.6         -4.221           66.6          100.7          53.58
   0.02997               -51.9          21.69          37.78          46.51          3.803         0.8508         -152.6         -4.216           66.6          100.7          53.58
   0.04496              -51.89          21.68          37.77          46.51          3.801         0.8495         -152.6         -4.211           66.6          100.7          53.57
   0.05994              -51.89          21.68          37.77          46.51          3.798         0.8482         -152.6         -4.206          66.59          100.7          53.57
   0.07493              -51.89          21.68          37.76          46.51          3.795         0.8467         -152.5         -4.201          66.59          100.7          53.56
   0.08991              -51.89          21.67          37.75          46.51          3.792         0.8451         -152.5         -4.195          66.59          100.7          53.55
    0.1049              -51.89          21.67          37.75          46.51          3.789         0.8434         -152.5         -4.188          66.58          100.7          53.55
    0.1199              -51.89          21.66          37.74          46.51          3.786         0.8416         -152.4         -4.182          66.58          100.7          53.54
    0.1349              -51.89          21.66          37.73          46.51          3.783         0.8397         -152.4         -4.175          66.57          100.6          53.53
    0.1499              -51.89          21.65          37.72          46.51          3.779         0.8376         -152.3         -4.167          66.57          100.6          53.52
    0.1648              -51.88          21.64          37.71          46.51          3.775         0.8354         -152.3         -4.159          66.56          100.6          53.51
    0.1798              -51.88          21.64           37.7          46.51           3.77          0.833         -152.2          -4.15          66.56          100.6           53.5
    0.1948              -51.88          21.63          37.68          46.51          3.766         0.8304         -152.2          -4.14          66.55          100.6          53.49
    0.2098              -51.88          21.62          37.67          46.51          3.761         0.8276         -152.1         -4.129          66.54          100.6          53.48
    0.2248              -51.87          21.61          37.65          46.51          3.755         0.8246         -152.1         -4.118          66.54          100.6          53.46
    0.2398              -51.87           21.6          37.64          46.51          3.749         0.8213         -152.0         -4.106          66.53          100.6          53.45
    0.2548              -51.87          21.59          37.62          46.51          3.743         0.8176         -151.9         -4.092          66.52          100.6          53.43
    0.2697              -51.87          21.58           37.6          46.51          3.735         0.8137         -151.8         -4.078          66.51          100.5          53.42
    0.2847              -51.86          21.57          37.58          46.51          3.728         0.8094         -151.8         -4.062           66.5          100.5           53.4
    0.2997              -51.86          21.56          37.56          46.51          3.719         0.8047         -151.7         -4.044          66.49          100.5          53.38
    0.3147              -51.85          21.54          37.53          46.51           3.71         0.7995         -151.6         -4.024          66.47          100.5          53.35
    0.3297              -51.85          21.52          37.51          46.51          3.699         0.7937         -151.4         -4.003          66.46          100.5          53.33
    0.3447              -51.84          21.51          37.48          46.51          3.688         0.7873         -151.3         -3.979          66.44          100.4           53.3
    0.3597              -51.84          21.49          37.44          46.51          3.675         0.7802         -151.2         -3.953          66.43          100.4          53.27
    0.3746              -51.83          21.46           37.4           46.5           3.66         0.7723         -151.0         -3.923          66.41          100.4          53.23
    0.3896              -51.82          21.44          37.36           46.5          3.644         0.7635         -150.8          -3.89          66.39          100.4           53.2
    0.4046              -51.82          21.41          37.31           46.5          3.626         0.7535         -150.6         -3.853          66.36          100.3          53.15
    0.4196              -51.81          21.38          37.26           46.5          3.606         0.7422         -150.4         -3.811          66.34          100.3           53.1
    0.4346               -51.8          21.34           37.2           46.5          3.582         0.7295         -150.1         -3.764           66.3          100.2          53.05
    0.4496              -51.78           21.3          37.13           46.5          3.556         0.7149         -149.8         -3.709          66.27          100.2          52.98
    0.4646              -51.77          21.25          37.05           46.5          3.526         0.6981         -149.5         -3.647          66.23          100.1          52.91
